<svg width="88" height="98" viewBox="0 0 88 98" fill="none" xmlns="http://www.w3.org/2000/svg">
<rect y="16" width="88" height="82" rx="23" fill="url(#paint0_linear_805_7)"/>
<path d="M38.5938 26.4688H39.8125C45.5 26.4688 48.75 26.875 49.5625 27.6875C55.4375 29.625 59.8438 33.0312 62.7812 37.9062C66.7188 42.5938 68.6875 47.375 68.6875 52.25L68.4062 53.6562H68.5C68.6875 53.6562 68.9062 53.9688 69.1562 54.5938L68.7812 58.8125C68.4062 59.875 68.0625 62 67.75 65.1875C67.0625 67.8125 66.0938 70.3438 64.8438 72.7812L62.9688 77.375V77.8438C63.9688 78.8438 64.7812 79.3438 65.4062 79.3438H65.5C66.625 79.3438 67.1875 78.5 67.1875 76.8125L67.375 76.7188H67.5625C67.9375 76.7188 69.5 78.0938 72.25 80.8438C72.6875 80.9062 72.9062 81 72.9062 81.125C71.1562 82.5625 69.8438 84.2188 68.9688 86.0938C68.1562 87.0312 67.375 88.1562 66.625 89.4688C65.625 90.0312 64.8438 90.3125 64.2812 90.3125L63.9062 90.2188V90.0312L64.0938 89.6562C64.0312 89.4062 62.9062 88.625 60.7188 87.3125V86.4688H60.4375C60 86.4688 58.9688 85.8438 57.3438 84.5938H56.9688L52.6562 87.3125C50.3438 88.75 46.8438 89.4688 42.1562 89.4688C38.0938 89.4688 33.8438 88.4375 29.4062 86.375C28.9688 85.9375 28.4062 85.2188 27.7188 84.2188C22.5312 79.0312 19.9375 75.5312 19.9375 73.7188C19.375 70.7188 18.7188 68.375 17.9688 66.6875C17.9688 65.125 17.375 62.1562 16.1875 57.7812L16.8438 51.6875C17.5938 50.6875 17.9688 49.3438 17.9688 47.6562C18.6562 46.9688 19 45.9375 19 44.5625C21.125 40.625 22.7812 38.0625 23.9688 36.875L26.7812 33.3125C27.6562 32.5 28.625 32 29.6875 31.8125L29.7812 31.25H29.4062L29.0312 31.4375L28.6562 31.25V31.1562C29.1562 30.4687 30.9062 29.0938 33.9062 27.0312C35.0938 26.6562 36.6562 26.4688 38.5938 26.4688ZM41.7812 28.9062L40.9375 29.0938V29.4688L41.5938 29.5625H43.2812V29.375C43.2812 29.125 42.7812 28.9687 41.7812 28.9062ZM38.875 31.25H38.5938V31.4375L39.0625 31.8125H39.1562V31.5312L38.875 31.25ZM48.9062 32.0938H48.8125V32.1875C48.8125 32.6875 49.4062 33.0625 50.5938 33.3125H50.875V33.125C50.1875 32.4375 49.5312 32.0938 48.9062 32.0938ZM53.6875 32.6562H53.5938V32.9375C55.0312 33.8125 55.8438 34.25 56.0312 34.25V34.0625C56.0312 33.6875 55.25 33.2188 53.6875 32.6562ZM34.0938 34.1562V34.25H35.7812C36.6562 34.25 37.1875 33.875 37.375 33.125H37.1875H37C35.9375 33.125 34.9688 33.4688 34.0938 34.1562ZM41.4062 34.0625L41.2188 34.1562V34.5312L41.7812 34.625H42.0625V34.5312C42.0625 34.2812 41.8438 34.125 41.4062 34.0625ZM50.9688 35.375H50.6875V35.4688L50.9688 35.9375H51.25V35.6562L50.9688 35.375ZM22.2812 58.0625C22.2812 60.8125 22.8438 63.5938 23.9688 66.4062C25.7812 72.4062 27.0312 75.9062 27.7188 76.9062C34.5312 80.7812 39.7812 82.7188 43.4688 82.7188H46.6562C48.8438 82.7188 50.5938 81.875 51.9062 80.1875V80C51.9062 79.875 51.3438 79.5938 50.2188 79.1562C47.7188 76.8438 46.4688 75.375 46.4688 74.75C46.4688 74.5 45.7188 74.0312 44.2188 73.3438C43.1562 71.9062 42.625 71 42.625 70.625C42.625 70.1875 43.25 69.625 44.5 68.9375C45.5 67.4375 46.2812 66.4062 46.8438 65.8438H47.2188L53.2188 71.2812C55.5312 72.6562 57.0312 73.3438 57.7188 73.3438H58C58.25 73.0938 58.75 71.0938 59.5 67.3438C60.0625 66.3438 60.9375 62.8125 62.125 56.75L62.2188 54.2188V52.3438C62.2188 49.0938 61.2812 45.5938 59.4062 41.8438C58.9062 40.9062 56.6875 39.7188 52.75 38.2812C50.5 37.4062 46.4688 36.5312 40.6562 35.6562H40C39 35.6562 36.1875 37.125 31.5625 40.0625C30.125 41.3125 29.4062 42.3125 29.4062 43.0625C28.7188 44.25 27.1562 45.9688 24.7188 48.2188C23.0938 51.5938 22.2812 54.875 22.2812 58.0625ZM55.75 36.5938L55.6562 36.7812V36.875C55.6562 37.25 56.0938 37.5938 56.9688 37.9062H57.1562L57.4375 37.5312V37.4375C57.0625 36.875 56.5 36.5938 55.75 36.5938ZM60.7188 37.1562L60.3438 37.5312V37.9062C60.3438 38.7188 60.9375 39.4375 62.125 40.0625L62.5 39.875V39.5938C62.5 38.7812 62 37.9688 61 37.1562H60.7188ZM24.625 39.7812L25.2812 40.0625H25.6562C26.0938 40.0625 26.375 39.9062 26.5 39.5938V39.5L25.9375 38.9375H25.8438C25.0312 39 24.625 39.2812 24.625 39.7812ZM25.5625 44.9375L25.75 45.3125C26.3125 45.0625 26.5938 44.6875 26.5938 44.1875H26.3125C25.9375 44.375 25.6875 44.625 25.5625 44.9375ZM64.0938 45.4062H63.625V45.5L64.0938 46.625H64.4688V46.5312L64.0938 45.4062ZM21.1562 50.6562L20.7812 51.0312C20.7812 51.6562 20.9062 52 21.1562 52.0625H21.25L22 51.3125V51.125L21.5312 50.6562H21.1562ZM62.5 63.2188L62.6875 63.5H62.7812C62.9688 63.5 63.0625 63.1875 63.0625 62.5625V62H62.9688C62.7188 62 62.5625 62.4062 62.5 63.2188ZM19.375 64.25H19.1875V65L19.5625 65.1875H19.75C19.75 64.625 19.625 64.3125 19.375 64.25ZM46.75 67.3438C46.875 67.6562 47.1562 67.8125 47.5938 67.8125H47.6875L47.9688 67.5312C47.9062 67.3438 47.7188 67.1562 47.4062 66.9688H47.0312C46.8438 66.9688 46.75 67.0938 46.75 67.3438ZM47.875 70.9062V71.2812C48.375 71.9688 49 72.3125 49.75 72.3125H50.125L50.4062 71.9375V71.375C50.4062 70.875 50.0938 70.4062 49.4688 69.9688H49C48.5625 70.1562 48.1875 70.4688 47.875 70.9062ZM60.3438 75.9688V76.4375H60.4375C60.9375 76.4375 61.7812 74.8438 62.9688 71.6562V71.375H62.7812C62.5312 71.375 61.7188 72.9062 60.3438 75.9688ZM59.4062 73.7188L59.0312 74.0938V74.375H59.2188C59.5312 74.25 59.6875 74.0312 59.6875 73.7188H59.4062ZM55.375 74.2812H55.0938V74.375L55.375 74.75H55.75V74.6562L55.375 74.2812ZM53.4062 75.875H53.2188V75.9688C53.2812 76.2188 53.5 76.4688 53.875 76.7188H54.3438L54.625 76.4375C54.4375 76.0625 54.0312 75.875 53.4062 75.875ZM24.7188 78.2188L24.625 78.4062C24.625 78.5938 25 78.9062 25.75 79.3438L25.8438 79.1562C25.8438 78.8438 25.4688 78.5312 24.7188 78.2188ZM62.9688 79.625H62.7812V79.9062L63.0625 80.1875H63.3438V80L62.9688 79.625ZM67.375 81.3125V81.6875C67.9375 81.6875 68.6562 81.1562 69.5312 80.0938V79.9062L69.25 79.625H68.9688C67.9062 80 67.375 80.5625 67.375 81.3125ZM29.4062 79.9062H29.3125V80C29.6875 80.5625 30.125 80.8438 30.625 80.8438H30.8125V80.5625C30.5625 80.125 30.0938 79.9062 29.4062 79.9062ZM53.875 81.3125H53.5V81.4062L53.875 81.7812H54.1562V81.5L53.875 81.3125ZM51.9062 83.1875L44.4062 86.375V86.4688C46.7812 86.4688 49.3438 85.5 52.0938 83.5625L52.2812 83.4688V83.2812L52.0938 83.1875H51.9062ZM33.8125 83.2812H33.7188L33.5312 83.4688V83.6562C33.5312 83.9062 34.4062 84.1562 36.1562 84.4062C36.9688 84.7812 37.9688 84.9688 39.1562 84.9688C38.7812 84.6562 37 84.0938 33.8125 83.2812ZM42.1562 84.6875V84.7812L42.8125 84.9688H43.1875C43.6875 84.9688 44.4688 84.7812 45.5312 84.4062V84.125H43.9375C42.75 84.1875 42.1562 84.375 42.1562 84.6875ZM66.0625 85.1562H65.4062V85.5312L65.9688 85.625L66.25 85.5312V85.25L66.0625 85.1562ZM40 86.5625H39.5312V86.75C39.5938 86.9375 39.9062 87.0312 40.4688 87.0312H40.9375V86.9375C40.875 86.6875 40.5625 86.5625 40 86.5625ZM63.625 87.3125L63.3438 87.5V87.7812H63.7188L64.0938 87.5V87.3125H63.625ZM46.1875 88.5312L45.9062 88.7188V88.8125H46.75L47.0312 88.625V88.5312H46.1875Z" fill="url(#paint1_linear_805_7)"/>
<defs>
<linearGradient id="paint0_linear_805_7" x1="47.5" y1="80" x2="94" y2="116.5" gradientUnits="userSpaceOnUse">
<stop stop-color="#D9D9D9"/>
<stop offset="1" stop-color="#737373"/>
</linearGradient>
<linearGradient id="paint1_linear_805_7" x1="52" y1="0" x2="52" y2="93" gradientUnits="userSpaceOnUse">
<stop offset="0.541667" stop-color="#276988"/>
<stop offset="1" stop-color="#AE00FF"/>
</linearGradient>
</defs>
</svg>
