<svg width="272" height="91" viewBox="0 0 272 91" fill="none" xmlns="http://www.w3.org/2000/svg">
<path d="M22.5938 8.46875H23.8125C29.5 8.46875 32.75 8.875 33.5625 9.6875C39.4375 11.625 43.8438 15.0312 46.7812 19.9062C50.7188 24.5938 52.6875 29.375 52.6875 34.25L52.4062 35.6562H52.5C52.6875 35.6562 52.9062 35.9688 53.1562 36.5938L52.7812 40.8125C52.4062 41.875 52.0625 44 51.75 47.1875C51.0625 49.8125 50.0938 52.3438 48.8438 54.7812L46.9688 59.375V59.8438C47.9688 60.8438 48.7812 61.3438 49.4062 61.3438H49.5C50.625 61.3438 51.1875 60.5 51.1875 58.8125L51.375 58.7188H51.5625C51.9375 58.7188 53.5 60.0938 56.25 62.8438C56.6875 62.9062 56.9062 63 56.9062 63.125C55.1562 64.5625 53.8438 66.2188 52.9688 68.0938C52.1562 69.0312 51.375 70.1562 50.625 71.4688C49.625 72.0312 48.8438 72.3125 48.2812 72.3125L47.9062 72.2188V72.0312L48.0938 71.6562C48.0312 71.4062 46.9062 70.625 44.7188 69.3125V68.4688H44.4375C44 68.4688 42.9688 67.8438 41.3438 66.5938H40.9688L36.6562 69.3125C34.3438 70.75 30.8438 71.4688 26.1562 71.4688C22.0938 71.4688 17.8438 70.4375 13.4062 68.375C12.9688 67.9375 12.4062 67.2188 11.7188 66.2188C6.53125 61.0312 3.9375 57.5312 3.9375 55.7188C3.375 52.7188 2.71875 50.375 1.96875 48.6875C1.96875 47.125 1.375 44.1562 0.1875 39.7812L0.84375 33.6875C1.59375 32.6875 1.96875 31.3438 1.96875 29.6562C2.65625 28.9688 3 27.9375 3 26.5625C5.125 22.625 6.78125 20.0625 7.96875 18.875L10.7812 15.3125C11.6562 14.5 12.625 14 13.6875 13.8125L13.7812 13.25H13.4062L13.0312 13.4375L12.6562 13.25V13.1562C13.1562 12.4687 14.9062 11.0938 17.9062 9.03125C19.0938 8.65625 20.6562 8.46875 22.5938 8.46875ZM25.7812 10.9062L24.9375 11.0938V11.4688L25.5938 11.5625H27.2812V11.375C27.2812 11.125 26.7812 10.9687 25.7812 10.9062ZM22.875 13.25H22.5938V13.4375L23.0625 13.8125H23.1562V13.5312L22.875 13.25ZM32.9062 14.0938H32.8125V14.1875C32.8125 14.6875 33.4062 15.0625 34.5938 15.3125H34.875V15.125C34.1875 14.4375 33.5312 14.0938 32.9062 14.0938ZM37.6875 14.6562H37.5938V14.9375C39.0312 15.8125 39.8438 16.25 40.0312 16.25V16.0625C40.0312 15.6875 39.25 15.2188 37.6875 14.6562ZM18.0938 16.1562V16.25H19.7812C20.6562 16.25 21.1875 15.875 21.375 15.125H21.1875H21C19.9375 15.125 18.9688 15.4688 18.0938 16.1562ZM25.4062 16.0625L25.2188 16.1562V16.5312L25.7812 16.625H26.0625V16.5312C26.0625 16.2812 25.8438 16.125 25.4062 16.0625ZM34.9688 17.375H34.6875V17.4688L34.9688 17.9375H35.25V17.6562L34.9688 17.375ZM6.28125 40.0625C6.28125 42.8125 6.84375 45.5938 7.96875 48.4062C9.78125 54.4062 11.0312 57.9062 11.7188 58.9062C18.5312 62.7812 23.7812 64.7188 27.4688 64.7188H30.6562C32.8438 64.7188 34.5938 63.875 35.9062 62.1875V62C35.9062 61.875 35.3438 61.5938 34.2188 61.1562C31.7188 58.8438 30.4688 57.375 30.4688 56.75C30.4688 56.5 29.7188 56.0312 28.2188 55.3438C27.1562 53.9062 26.625 53 26.625 52.625C26.625 52.1875 27.25 51.625 28.5 50.9375C29.5 49.4375 30.2812 48.4062 30.8438 47.8438H31.2188L37.2188 53.2812C39.5312 54.6562 41.0312 55.3438 41.7188 55.3438H42C42.25 55.0938 42.75 53.0938 43.5 49.3438C44.0625 48.3438 44.9375 44.8125 46.125 38.75L46.2188 36.2188V34.3438C46.2188 31.0938 45.2812 27.5938 43.4062 23.8438C42.9062 22.9062 40.6875 21.7188 36.75 20.2812C34.5 19.4062 30.4688 18.5312 24.6562 17.6562H24C23 17.6562 20.1875 19.125 15.5625 22.0625C14.125 23.3125 13.4062 24.3125 13.4062 25.0625C12.7188 26.25 11.1562 27.9688 8.71875 30.2188C7.09375 33.5938 6.28125 36.875 6.28125 40.0625ZM39.75 18.5938L39.6562 18.7812V18.875C39.6562 19.25 40.0938 19.5938 40.9688 19.9062H41.1562L41.4375 19.5312V19.4375C41.0625 18.875 40.5 18.5938 39.75 18.5938ZM44.7188 19.1562L44.3438 19.5312V19.9062C44.3438 20.7188 44.9375 21.4375 46.125 22.0625L46.5 21.875V21.5938C46.5 20.7812 46 19.9688 45 19.1562H44.7188ZM8.625 21.7812L9.28125 22.0625H9.65625C10.0938 22.0625 10.375 21.9062 10.5 21.5938V21.5L9.9375 20.9375H9.84375C9.03125 21 8.625 21.2812 8.625 21.7812ZM9.5625 26.9375L9.75 27.3125C10.3125 27.0625 10.5938 26.6875 10.5938 26.1875H10.3125C9.9375 26.375 9.6875 26.625 9.5625 26.9375ZM48.0938 27.4062H47.625V27.5L48.0938 28.625H48.4688V28.5312L48.0938 27.4062ZM5.15625 32.6562L4.78125 33.0312C4.78125 33.6562 4.90625 34 5.15625 34.0625H5.25L6 33.3125V33.125L5.53125 32.6562H5.15625ZM46.5 45.2188L46.6875 45.5H46.7812C46.9688 45.5 47.0625 45.1875 47.0625 44.5625V44H46.9688C46.7188 44 46.5625 44.4062 46.5 45.2188ZM3.375 46.25H3.1875V47L3.5625 47.1875H3.75C3.75 46.625 3.625 46.3125 3.375 46.25ZM30.75 49.3438C30.875 49.6562 31.1562 49.8125 31.5938 49.8125H31.6875L31.9688 49.5312C31.9062 49.3438 31.7188 49.1562 31.4062 48.9688H31.0312C30.8438 48.9688 30.75 49.0938 30.75 49.3438ZM31.875 52.9062V53.2812C32.375 53.9688 33 54.3125 33.75 54.3125H34.125L34.4062 53.9375V53.375C34.4062 52.875 34.0938 52.4062 33.4688 51.9688H33C32.5625 52.1562 32.1875 52.4688 31.875 52.9062ZM44.3438 57.9688V58.4375H44.4375C44.9375 58.4375 45.7812 56.8438 46.9688 53.6562V53.375H46.7812C46.5312 53.375 45.7188 54.9062 44.3438 57.9688ZM43.4062 55.7188L43.0312 56.0938V56.375H43.2188C43.5312 56.25 43.6875 56.0312 43.6875 55.7188H43.4062ZM39.375 56.2812H39.0938V56.375L39.375 56.75H39.75V56.6562L39.375 56.2812ZM37.4062 57.875H37.2188V57.9688C37.2812 58.2188 37.5 58.4688 37.875 58.7188H38.3438L38.625 58.4375C38.4375 58.0625 38.0312 57.875 37.4062 57.875ZM8.71875 60.2188L8.625 60.4062C8.625 60.5938 9 60.9062 9.75 61.3438L9.84375 61.1562C9.84375 60.8438 9.46875 60.5312 8.71875 60.2188ZM46.9688 61.625H46.7812V61.9062L47.0625 62.1875H47.3438V62L46.9688 61.625ZM51.375 63.3125V63.6875C51.9375 63.6875 52.6562 63.1562 53.5312 62.0938V61.9062L53.25 61.625H52.9688C51.9062 62 51.375 62.5625 51.375 63.3125ZM13.4062 61.9062H13.3125V62C13.6875 62.5625 14.125 62.8438 14.625 62.8438H14.8125V62.5625C14.5625 62.125 14.0938 61.9062 13.4062 61.9062ZM37.875 63.3125H37.5V63.4062L37.875 63.7812H38.1562V63.5L37.875 63.3125ZM35.9062 65.1875L28.4062 68.375V68.4688C30.7812 68.4688 33.3438 67.5 36.0938 65.5625L36.2812 65.4688V65.2812L36.0938 65.1875H35.9062ZM17.8125 65.2812H17.7188L17.5312 65.4688V65.6562C17.5312 65.9062 18.4062 66.1562 20.1562 66.4062C20.9688 66.7812 21.9688 66.9688 23.1562 66.9688C22.7812 66.6562 21 66.0938 17.8125 65.2812ZM26.1562 66.6875V66.7812L26.8125 66.9688H27.1875C27.6875 66.9688 28.4688 66.7812 29.5312 66.4062V66.125H27.9375C26.75 66.1875 26.1562 66.375 26.1562 66.6875ZM50.0625 67.1562H49.4062V67.5312L49.9688 67.625L50.25 67.5312V67.25L50.0625 67.1562ZM24 68.5625H23.5312V68.75C23.5938 68.9375 23.9062 69.0312 24.4688 69.0312H24.9375V68.9375C24.875 68.6875 24.5625 68.5625 24 68.5625ZM47.625 69.3125L47.3438 69.5V69.7812H47.7188L48.0938 69.5V69.3125H47.625ZM30.1875 70.5312L29.9062 70.7188V70.8125H30.75L31.0312 70.625V70.5312H30.1875ZM66.375 24.5L72.75 26.6562C72.8125 27.5938 73.1875 28.5938 73.875 29.6562L74.0625 30.6875C73.5 34.6875 73.3438 43 73.5938 55.625C73.5938 57.4375 74.3438 58.625 75.8438 59.1875L76.5 60.6875C76.5 61.0625 78.5625 61.4062 82.6875 61.7188H83.0625C84.375 61.7188 86 60.3125 87.9375 57.5C89.4375 56 90.4375 54.8125 90.9375 53.9375H91.4062V53.375L91.2188 52.9062C91.5938 52.3438 91.875 51.5 92.0625 50.375H92.1562V49.5312L93.8438 31.7188V30.0312L93.6562 29.0938V29C94.3438 28.5 94.6875 27.7188 94.6875 26.6562C94.6875 25.9688 94.9062 25.5938 95.3438 25.5312L97.5 26.6562H99.5625C102.062 26.6562 103.844 27.1875 104.906 28.25V28.625C104.219 28.625 103.875 28.75 103.875 29L104.812 31.1562H105.094C105.219 30.2188 105.344 29.75 105.469 29.75C105.719 30.0625 105.875 30.5938 105.938 31.3438L104.906 42.9688L105.094 43.1562V43.25C104.656 44.5625 104.219 48.3438 103.781 54.5938V57.3125C103.781 61.375 103.969 63.4062 104.344 63.4062H104.719C105.844 63.4062 107.656 63.1562 110.156 62.6562C110.406 62.7188 110.969 63.0938 111.844 63.7812C111.594 69.4062 111.219 72.2188 110.719 72.2188L109.688 71.375L106.875 71.5625L96.4688 71.375C95.9062 71.375 95.3438 70.0938 94.7812 67.5312C94.4062 67.2188 94.2188 66.8438 94.2188 66.4062L94.4062 65.5625H94.125C93.625 65.5625 91.7812 66.4062 88.5938 68.0938C88.4062 68.5312 86.2188 69.4375 82.0312 70.8125C81.0938 71.3125 79.8438 71.8125 78.2812 72.3125C77.3438 71.75 75.8438 71.1875 73.7812 70.625C69.8438 66.75 67.4375 63.3438 66.5625 60.4062C64.9375 58.0938 64.125 53.1562 64.125 45.5938L65.1562 34.625V34.3438C65.1562 34.2188 63.0312 33.8125 58.7812 33.125C58.4062 32.5625 58.2188 31 58.2188 28.4375C58.2188 26.75 58.5 25.9062 59.0625 25.9062C59.0625 25.2188 61.5 24.75 66.375 24.5ZM64.7812 25.625L64.4062 25.8125V26H65.0625V25.8125L64.7812 25.625ZM67.125 26.375L66.6562 26.5625V26.6562C66.6562 26.7188 67.125 27 68.0625 27.5C68.0625 28.3125 68.125 28.7188 68.25 28.7188H68.8125C70.3125 28.7188 71.2188 28.4688 71.5312 27.9688V27.7812C71.5312 27.3438 70.5938 27 68.7188 26.75C68.7188 26.625 68.3438 26.5 67.5938 26.375H67.125ZM60.75 29H59.5312V29.2812L59.7188 29.375H60L60.75 29.2812V29ZM60.75 29.9375H60V30.125C60.0625 30.5 60.4062 30.6875 61.0312 30.6875L61.125 30.5V30.3125L60.75 29.9375ZM95.625 27.6875H95.4375C95.4375 28.3125 95.9375 28.625 96.9375 28.625H97.5L97.7812 28.4375V28.3438C97.7812 28.0312 97.0625 27.8125 95.625 27.6875ZM63.1875 31.0625C63.1875 31.4375 64.1875 31.9688 66.1875 32.6562H67.125C67.375 32.6562 67.5 32.4375 67.5 32C66.8125 31.3125 65.9688 30.875 64.9688 30.6875H64.2188C63.5938 30.6875 63.25 30.8125 63.1875 31.0625ZM61.9688 30.7812L61.5 30.9688V31.25L61.5938 31.3438V31.4375C62.1562 31.3125 62.4375 31.1562 62.4375 30.9688V30.7812H61.9688ZM70.2188 31.8125V33.5938L70.5 33.7812C70.875 33.5938 71.0625 33.2188 71.0625 32.6562V31.625C71.0625 31.25 70.9688 31 70.7812 30.875H70.5938C70.3438 30.9375 70.2188 31.25 70.2188 31.8125ZM59.9062 31.4375L59.5312 31.8125L59.7188 32H60.4688L60.75 31.8125L60.375 31.4375H59.9062ZM96.4688 30.6875L96.1875 30.9688V31.1562C96.1875 31.4062 96.4062 31.5312 96.8438 31.5312H96.9375C97.375 31.5312 97.625 31.4062 97.6875 31.1562V30.9688C97.625 30.7812 97.3125 30.6875 96.75 30.6875H96.4688ZM66.0938 36.0312V36.7812L67.5 36.3125V34.3438L67.3125 34.0625C67 34.0625 66.5938 34.7188 66.0938 36.0312ZM97.7812 41V41.375H97.875C98.5 41.375 98.8125 40.6562 98.8125 39.2188C98.75 38.5938 98.6562 38.2812 98.5312 38.2812C98.3438 38.2812 98.0938 39.1875 97.7812 41ZM101.531 43.9062H101.25L101.062 44.2812C101.188 44.5938 101.312 44.75 101.438 44.75H101.531V43.9062ZM67.7812 46.5312L67.5 46.4375L67.125 46.8125V47L67.5 47.1875L67.7812 46.9062V46.5312ZM96.4688 49.9062L96.9375 50.375C97.25 50.25 97.4375 49.625 97.5 48.5L97.4062 48.3125H97.2188C96.7188 48.6875 96.4688 49.2188 96.4688 49.9062ZM69.6562 49.7188V50.375C69.6562 51.1875 70.0625 51.8125 70.875 52.25H71.1562C71.1562 49.9375 70.9688 48.7812 70.5938 48.7812H70.2188C69.8438 48.9688 69.6562 49.2812 69.6562 49.7188ZM96.2812 50.9375L96 51.2188V52.0625L96.2812 52.4375C96.6562 52.25 96.9375 51.9688 97.125 51.5938V51.2188L96.8438 50.9375H96.2812ZM66.4688 51.9688L66.1875 52.25V52.625C66.1875 55.0625 67.5 58.875 70.125 64.0625C70.625 64.375 70.9688 64.5312 71.1562 64.5312V64.0625L68.4375 56.4688C67.625 53.5938 67 52.0938 66.5625 51.9688H66.4688ZM98.5312 54.5938L98.1562 54.9688V55.0625L98.5312 55.3438L98.8125 55.0625L98.7188 54.5938H98.5312ZM88.2188 59.1875L88.3125 59.375H88.4062C89.9062 57.375 90.6562 56.2188 90.6562 55.9062V55.7188H90.375C89.875 56.3438 89.1562 57.5 88.2188 59.1875ZM71.4375 55.9062V56C71.625 56.375 71.875 56.5625 72.1875 56.5625V56.4688C72.1875 56.0938 71.9375 55.9062 71.4375 55.9062ZM98.3438 56.0938H98.1562V56.6562C98.1562 57.6562 98.3125 58.9375 98.625 60.5H98.9062C99.1562 59.5625 99.2812 58.6562 99.2812 57.7812V57.125C99.2812 56.4375 98.9688 56.0938 98.3438 56.0938ZM93.2812 57.0312L92.9062 56.5625C92.5312 57.0625 92.3438 57.4375 92.3438 57.6875L92.8125 57.9688H92.9062L93.2812 57.6875V57.0312ZM96.4688 57.9688H96.2812V58.625H96.4688L96.75 58.3438V58.0625L96.4688 57.9688ZM74.1562 60.6875H74.0625V60.9688L74.25 61.25H74.3438V60.9688L74.1562 60.6875ZM102.375 60.7812L101.438 62.1875V62.4688H102.375L102.75 62.1875V61.7188C102.75 61.1562 102.625 60.8438 102.375 60.7812ZM93.6562 62.375V62.4688H93.8438L94.5 61.9062V61.5312C93.9375 61.5312 93.6562 61.8125 93.6562 62.375ZM96.4688 62.1875L96.1875 62.4688V63.5938C96.1875 67.9688 96.4062 70.1562 96.8438 70.1562H97.125C97.5625 70.0938 97.7812 69.9062 97.7812 69.5938C97.2812 68.7188 97 66.4375 96.9375 62.75L96.4688 62.1875ZM73.5 62.6562H73.2188V63.0312C73.2812 63.2812 73.5 63.4062 73.875 63.4062V63.0312L73.5 62.6562ZM75.8438 63.3125H75.5625V63.4062C75.5625 64.0938 76.6562 65.0938 78.8438 66.4062C81.3438 65.4062 82.5938 64.7812 82.5938 64.5312V64.4375C80.9688 64.4375 78.7188 64.0625 75.8438 63.3125ZM80.3438 66.7812V66.9688H81.4688C83.9062 66.4062 85.5312 65.5625 86.3438 64.4375V64.0625H85.875C85.5 64.0625 83.6562 64.9688 80.3438 66.7812ZM108 64.8125L105.094 65.1875V65.5625L105.656 65.6562H106.031C107.406 65.5938 108.094 65.375 108.094 65V64.8125H108ZM108 66.4062H107.625V66.9688H108L108.281 66.7812V66.5938C108.281 66.4688 108.188 66.4062 108 66.4062ZM100.406 67.9062L100.125 68.0938V68.375C100.25 68.6875 100.625 68.8438 101.25 68.8438H102.188L102.469 68.6562V68.4688C102.469 68.1562 102.062 67.9688 101.25 67.9062H100.406ZM78.5625 68.8438H77.8125L74.0625 68.4688H73.875L73.5 68.8438V68.9375C73.5 69.5 75.25 70.125 78.75 70.8125C79.8125 70.8125 81.9062 70.0312 85.0312 68.4688L85.125 68.375V68.0938H84.4688C82.5938 68.5938 80.625 68.8438 78.5625 68.8438ZM127.219 4.8125L130.406 4.34375C132.594 4.34375 134.312 5.46875 135.562 7.71875L136.219 10.7188C136.094 11.9062 135.406 13.4688 134.156 15.4062C133.344 16.2188 132.094 16.625 130.406 16.625C126.469 16.625 124.031 16.0312 123.094 14.8438C122.156 13.5937 121.719 11.8438 121.781 9.59375C121.531 9.59375 121.406 9.53125 121.406 9.40625V9.21875C123.281 6.28125 125.219 4.8125 127.219 4.8125ZM125.344 7.15625V7.25C127.469 7 128.531 6.71875 128.531 6.40625L128.062 6.21875C126.25 6.53125 125.344 6.84375 125.344 7.15625ZM126.938 9.875H127.031L127.594 9.96875H127.781C128.469 9.96875 128.906 9.71875 129.094 9.21875L129 9.03125H127.875C127.375 9.03125 127.062 9.3125 126.938 9.875ZM133.688 9.03125L133.406 9.5V9.875H133.5L133.781 9.5V9.03125H133.688ZM131.438 12.125V12.4062H131.812C132.25 12.4062 132.594 12.1875 132.844 11.75V11.4688H132.656C132.219 11.4688 131.812 11.6875 131.438 12.125ZM129.375 13.8125L129.094 14.0938V14.2812H130.781L131.062 14.0938L130.781 13.8125H129.375ZM117.469 22.7188H117.75C118.25 23.1562 118.875 23.375 119.625 23.375L120.844 22.8125C129.344 22.8125 133.594 23.0625 133.594 23.5625L133.688 24.2188V25.8125C134.25 27.0625 134.531 28.25 134.531 29.375V30.875C133.781 41.0625 133.281 49.3125 133.031 55.625C132.906 56 132.781 56.6562 132.656 57.5938C132.719 57.8438 133 57.9688 133.5 57.9688H133.781C137.156 57.9688 138.844 58.375 138.844 59.1875L138.75 59.375V59.9375C139.5 61.4375 139.875 63.8125 139.875 67.0625L140.25 70.8125L139.969 71L135.844 71.1875H126.469C119.469 71.1875 115.969 70.625 115.969 69.5C115.969 68.8125 115.781 68.125 115.406 67.4375C115.594 67 115.906 66.6562 116.344 66.4062H116.625C116.875 66.6562 117.156 66.7812 117.469 66.7812H117.656C119.469 66.7812 121.625 66.625 124.125 66.3125V66.125C118.75 65.75 116.062 65.3125 116.062 64.8125L115.969 64.0625V63.0312L115.781 60.5938C115.781 59.9688 118.125 59.6562 122.812 59.6562C123.438 59.6562 123.75 58.25 123.75 55.4375L124.875 30.7812H124.688C122.938 30.7812 122.062 30.6562 122.062 30.4062C122.062 30.3438 122.156 30.25 122.344 30.125C118.594 30.125 116.719 29.6875 116.719 28.8125C116.469 28.75 116.344 28.5 116.344 28.0625L116.812 26.9375C116.812 26.6875 116.625 26.3438 116.25 25.9062C116.75 25.4062 117.094 24.4062 117.281 22.9062L117.469 22.7188ZM118.969 24.5938V24.9688H119.438C121.062 24.9688 121.875 24.8438 121.875 24.5938L121.688 24.2188H121.406C119.781 24.2188 118.969 24.3438 118.969 24.5938ZM131.719 23.9375L131.438 24.2188L131.812 24.5H132V24.2188L131.719 23.9375ZM121.031 25.9062H119.344V26.1875C119.344 26.4375 119.781 26.5625 120.656 26.5625H121.688H121.969H125.062C126 26.5625 126.469 26.4062 126.469 26.0938V26C126.469 25.6875 124.656 25.6562 121.031 25.9062ZM129.375 26L128.531 25.9062V26.0938C128.969 26.0938 129.5 26.4062 130.125 27.0312H130.312C130.438 27.0312 130.5 26.9375 130.5 26.75H130.688C130.938 26.75 131.094 27.0312 131.156 27.5938H131.344L132.656 26.6562V26.0938L130.688 26H129.375ZM129 31.25L129.469 32.6562L128.812 34.3438C129.062 34.9062 129.281 35.1875 129.469 35.1875H129.562L129.75 34.625V34.0625C129.75 31.8125 130.094 30.6875 130.781 30.6875L131.062 30.3125V29.9375L130.781 29.6562H130.219C129.406 29.6562 129 30.1875 129 31.25ZM126.094 40.1562L125.812 52.25C125.875 52.6875 125.969 52.9062 126.094 52.9062C126.281 52.9062 126.406 52.625 126.469 52.0625L126.375 50.6562C126.688 50.3438 127.031 49.0938 127.406 46.9062V46.3438L127.219 45.0312C127.594 44.7188 127.781 44.5 127.781 44.375C127.531 43.6875 127.406 43 127.406 42.3125V42.125C127.656 42.125 127.969 38.625 128.344 31.625C128.156 31.125 127.969 30.875 127.781 30.875C126.844 30.875 126.281 33.9688 126.094 40.1562ZM130.688 31.9062L130.312 32V32.5625C130.312 32.9375 130.469 33.2188 130.781 33.4062H131.062L131.344 33.0312V32.5625C131.219 32.25 131 32.0312 130.688 31.9062ZM130.219 47.1875H129.75C129.25 49.5 129 51.2188 129 52.3438H129.094C129.406 52.3438 129.812 51.0625 130.312 48.5V47.8438L130.219 47.1875ZM128.438 56V56.6562H128.625C128.938 56.5312 129.094 56.1562 129.094 55.5312V54.875H128.812C128.688 54.875 128.562 55.25 128.438 56ZM128.625 57.4062L128.344 57.7812V58.25H128.625L129 57.9688V57.6875L128.719 57.4062H128.625ZM136.125 59.6562L135.844 59.75C136.219 60.0625 136.906 60.25 137.906 60.3125V60.0312C137.906 59.7812 137.5 59.6562 136.688 59.6562H136.125ZM136.5 63.5938L135.375 63.875C135.5 64.625 136.062 65 137.062 65H137.344V64.7188L137.156 64.4375C137.156 64.375 137.406 64.1875 137.906 63.875V63.4062C137.906 62.9688 137.781 62.7188 137.531 62.6562H137.156C136.969 62.7188 136.75 63.0312 136.5 63.5938ZM118.594 62.75L117.938 62.9375V63.0312C118.438 63.5312 120.375 63.8125 123.75 63.875H124.406C124.906 63.875 125.219 63.7188 125.344 63.4062V63.2188C122.719 62.9062 120.469 62.75 118.594 62.75ZM127.406 63.875L127.781 64.3438C128.344 64.3438 128.625 64.0312 128.625 63.4062H128.156C127.781 63.4062 127.531 63.5625 127.406 63.875ZM136.219 65.75L135.938 66.125V66.3125H136.125L136.406 65.9375V65.75H136.219ZM129 66.3125L127.781 66.4062H126.469V66.7812L127.781 66.875L130.5 66.6875V66.4062H130.125L129 66.3125ZM138.562 69.5L138.188 69.7812V70.0625H138.75L138.844 69.7812L138.75 69.5H138.562ZM180.656 23.4688L182.812 22.9062C182.812 23.2188 183.719 23.4375 185.531 23.5625C185.844 25.25 186 27.2812 186 29.6562C186 30.0312 185.625 30.6875 184.875 31.625C183.5 32.9375 182.156 34.6562 180.844 36.7812C174.969 42.3438 169.906 46.8438 165.656 50.2812L160.781 53.6562C159.156 55.9688 157.281 58.5312 155.156 61.3438C154.656 62.3438 154.406 62.9688 154.406 63.2188L154.688 63.4062L162.656 63.7812H172.406C177.344 63.7812 179.812 63.5938 179.812 63.2188L179.906 61.4375L180.375 57.125C184.25 56.5625 186.562 56.5625 187.312 57.125C188.625 57.125 189.188 60 189 65.75C189.438 67.6875 189.125 69.125 188.062 70.0625C187 70.9375 185.219 71.3125 182.719 71.1875V70.8125H183.562L184.875 69.7812H183C182.438 70.1562 180 70.5 175.688 70.8125C172.5 71.1875 168.062 71.375 162.375 71.375C153.812 71.375 148.406 70.8438 146.156 69.7812C145.031 69.7812 144.469 69 144.469 67.4375C144.344 66.9375 144.125 64.3125 143.812 59.5625L153.188 51.5938C162.75 45.2812 168.906 40.3438 171.656 36.7812L174.469 33.3125V32.75C166.156 32.125 160.844 31.8125 158.531 31.8125H153.188V32.5625C153.188 32.875 152.938 33.4688 152.438 34.3438L152.156 35.8438V36.0312L152.25 38.5625L151.781 38.75L148.312 39.125C145.188 38.4375 143.625 37.875 143.625 37.4375C144 37.4375 144.469 34.125 145.031 27.5C145.156 25.625 145.312 24.4375 145.5 23.9375H145.594L149.062 24.5938C153 24.2812 163.531 23.9062 180.656 23.4688ZM152.438 66.7812L152.062 67.1562C152.062 67.2812 152.188 67.3438 152.438 67.3438L165.75 67.25L166.125 67.3438V67.4375L165.75 68V68.0938C175.312 67.7812 180.094 67.4688 180.094 67.1562V66.125L179.719 65.6562C176.844 66.0938 167.75 66.4688 152.438 66.7812ZM162.562 30.5938V30.7812L165.188 30.9688H167.625H169.219H170.906H173.812C174.75 30.9688 175.219 30.8438 175.219 30.5938C175.219 30.2188 175.75 30.0312 176.812 30.0312C177.438 29.6562 177.75 29.2188 177.75 28.7188L177.281 28.5312C174.219 28.5312 172.031 28.9062 170.719 29.6562C170.219 29.7812 167.5 30.0938 162.562 30.5938ZM171.188 39.7812C171.438 39.7812 172.375 39.0938 174 37.7188C174.688 37.7188 175.281 37.2812 175.781 36.4062C177.469 35.2188 178.594 34.0938 179.156 33.0312C179.344 33.0312 179.438 32.8438 179.438 32.4688V32.1875L179.156 31.5312C179.156 31.0312 179.375 30.4688 179.812 29.8438V29.6562C179.25 29.6562 178.438 30.6562 177.375 32.6562C173.25 36.8438 171.188 39.2188 171.188 39.7812ZM146.344 34.25L145.781 33.9688C145.531 34.6562 145.406 35.4062 145.406 36.2188V37.0625L145.594 37.25H145.688L146.062 36.875V36.0312C146.062 35.4062 146.469 35 147.281 34.8125C148.469 33 149.062 31.2812 149.062 29.6562V28.9062L148.5 28.7188C147.438 28.7188 146.906 29.6875 146.906 31.625C146.906 33.375 146.719 34.25 146.344 34.25ZM158.25 51.7812V52.0625H158.531C162.156 49.6875 164.406 47.4375 165.281 45.3125H165C163.438 46.3125 161.188 48.4688 158.25 51.7812ZM144.844 61.0625C144.844 61.4375 145.031 61.7812 145.406 62.0938H145.594C146.156 62.0938 147.594 60.9688 149.906 58.7188V58.5312H149.812C149.562 58.5312 148.25 59.25 145.875 60.6875C145.188 60.8125 144.844 60.9375 144.844 61.0625ZM153.938 55.5312V56.1875C154.812 56.1875 156.031 54.9375 157.594 52.4375H157.5C156.625 52.4375 155.438 53.4688 153.938 55.5312ZM149.812 34.25V34.3438H149.906C150.281 34.3438 150.812 33.2188 151.5 30.9688L151.781 29.2812L151.594 28.9062H151.406C150.344 30.8438 149.812 32.625 149.812 34.25ZM178.5 68.4688L176.438 69.125V69.4062H177.938C178.5 69.4062 178.844 69.25 178.969 68.9375L181.031 69.2188H181.5C182.125 68.8438 182.438 68.4688 182.438 68.0938H182.156C182.156 68.3438 180.938 68.4688 178.5 68.4688ZM186.75 58.625H186.375L186.188 61.0625C186.188 62.1875 186.281 63.0938 186.469 63.7812H186.656H186.938V63.4062C186.938 63.2812 187 62.2812 187.125 60.4062L186.75 58.625ZM149.625 36.7812V37.0625L149.812 37.25H150.844L151.312 36.875V36.7812C151.312 35.5312 151.125 34.9062 150.75 34.9062C150.375 34.9062 150 35.5312 149.625 36.7812ZM146.156 67.4375H146.438C146.938 67.4375 147.812 66.5312 149.062 64.7188L148.969 64.5312C147.094 65.7188 146.156 66.6875 146.156 67.4375ZM153.656 28.4375L153.375 28.625V30.0312L153.656 30.125H154.5C155.75 30.125 156.375 30.0312 156.375 29.8438C154.625 29.7812 153.75 29.5938 153.75 29.2812C153.812 28.9062 154.094 28.7188 154.594 28.7188V28.5312L154.031 28.4375H153.656ZM148.125 62.8438V63.2188H148.219C148.781 62.9688 149.406 62.3438 150.094 61.3438V61.0625H149.812C149.5 61.0625 148.938 61.6562 148.125 62.8438ZM172.125 42.5V42.7812H172.312C173.188 42.1562 174.062 41.3125 174.938 40.25H174.656C174.281 40.375 173.438 41.125 172.125 42.5ZM185.25 66.875L185.062 67.5312V68.0938L185.344 68.4688H186L186.188 68.0938V67.5312C185.938 67.0938 185.625 66.875 185.25 66.875ZM177.75 24.9688V25.0625H179.156L180.844 24.9688V24.5H179.812C179.375 24.5 178.688 24.6562 177.75 24.9688ZM181.312 65.0938V65.375L181.594 65.5625H182.062L182.438 65.1875V64.7188L182.156 64.4375H181.781C181.469 64.5625 181.312 64.7812 181.312 65.0938ZM157.406 28.3438L157.031 28.4375V28.625L157.875 28.7188H159.375C159.375 28.5312 158.719 28.4062 157.406 28.3438ZM148.125 68.4688L147.75 68.9375L148.125 69.2188C148.562 69.2188 148.812 69.125 148.875 68.9375V68.4688H148.125ZM145.594 64.1562L145.219 64.5312V65.0938H145.406C145.531 65.0938 145.656 64.8125 145.781 64.25L145.688 64.1562H145.594ZM147.562 26.2812L147.375 26.5625V26.6562L147.562 26.8438H148.031L148.125 26.6562V26.5625L148.031 26.2812H147.562ZM167.344 67.4375L167.531 67.25H168.281V67.3438C168.219 67.5938 167.969 67.7188 167.531 67.7188L167.344 67.4375ZM179.625 27.5938H179.156V27.7812L179.438 28.25L179.812 28.0625V27.7812L179.625 27.5938ZM169.688 27.3125H169.219V27.5H169.688V27.3125ZM178.219 37.0625H177.938V37.4375L178.219 37.1562V37.0625ZM186.656 63.4062H186.844V63.7812L186.656 63.6875V63.4062ZM173.906 65.1875L173.719 65L173.531 65.0938V65.1875H173.906ZM171.375 43.5312L171.094 43.8125H171.188L171.469 43.5312H171.375ZM195.75 0.96875L197.156 0.59375L201.094 1.625L207.188 1.34375C208.75 1.34375 209.531 1.8125 209.531 2.75C209.156 5.125 208.969 8.28125 208.969 12.2188V26.9375L208.875 41.0938L208.969 44.8438L208.5 62.6562C210.625 63.2188 213.844 63.625 218.156 63.875L218.25 63.9688V65.2812C218.25 65.5938 218.594 66.0938 219.281 66.7812C218.594 68.2812 217.812 70.5 216.938 73.4375L216.094 74.0938H215.812C215.438 73.5312 214.656 73.25 213.469 73.25L198.094 71.1875C193.469 71.1875 191.156 70.9062 191.156 70.3438C191.906 68.8438 192.469 66.4062 192.844 63.0312H192.938V62.9375L193.875 63.0312H194.812C195.125 62.8438 196.031 62.5938 197.531 62.2812C198.156 62.5938 198.625 62.75 198.938 62.75H200.062C200.688 62.75 201 62.125 201 60.875C201.125 59.375 201.438 52.5312 201.938 40.3438C201.5 36.5938 201.125 26.2812 200.812 9.40625C200.562 8.96875 200.25 8.75 199.875 8.75L195.656 9.03125C194.906 8.96875 194.531 8.71875 194.531 8.28125C194.781 3.40625 195.188 0.96875 195.75 0.96875ZM196.688 2.75L196.125 2.9375V3.125C196.125 3.6875 196.438 3.96875 197.062 3.96875H197.344C198.031 3.96875 198.719 3.625 199.406 2.9375V2.75H196.688ZM201.469 2.75L201.281 3.03125L202.031 3.21875H202.969L203.344 2.9375V2.75H201.469ZM204.469 6.40625V6.5L204.75 6.78125H205.125C205.688 6.40625 206.375 6.03125 207.188 5.65625C207.5 5.15625 207.656 4.78125 207.656 4.53125L207.469 4.34375H207.188C206.625 4.34375 206.062 4.6875 205.5 5.375C204.812 5.5625 204.469 5.90625 204.469 6.40625ZM196.219 4.90625L195.75 5.375V6.03125L196.125 6.40625H198H198.656V6.03125L196.969 5.28125L196.406 4.90625H196.219ZM203.531 12.5L203.344 12.7812V13.1562L203.531 13.4375H203.719L203.812 13.1562V12.7812L203.719 12.5H203.531ZM203.344 17.75L203.062 18.0312V18.2188H203.531V17.75H203.344ZM207.469 24.2188H207.188V24.3125L207.562 24.7812H207.656V24.5L207.469 24.2188ZM207.656 25.9062L207.281 25.625L207.188 27.5V28.625H207.281C207.531 28.625 207.656 28.1875 207.656 27.3125V25.9062ZM202.781 28.0625V28.4375L202.969 28.625L203.156 28.4375V27.9688L203.062 27.7812C203.062 27.7188 203.312 27.5312 203.812 27.2188V26.9375H203.438C203 27.1875 202.781 27.5625 202.781 28.0625ZM207.562 29.2812H207.188V30.0312H207.281L207.562 29.8438V29.2812ZM204.094 39.9688V40.25H204.281C204.594 40.25 204.75 38.9688 204.75 36.4062C204.625 36.4062 204.406 37.5938 204.094 39.9688ZM206.25 44.375L206.062 44.5625L205.875 50.4688V58.3438L206.062 62L206.156 62.0938H206.812C207.062 62.0938 207.188 61.8125 207.188 61.25C207.125 50 206.812 44.375 206.25 44.375ZM202.406 58.3438V58.7188C202.406 59.1562 202.531 59.375 202.781 59.375L203.156 58.8125V58.1562C203.031 57.4062 202.906 57.0312 202.781 57.0312C202.531 57.0312 202.406 57.4688 202.406 58.3438ZM196.781 64.4375L196.594 64.7188C196.594 65.2188 196.812 65.4688 197.25 65.4688H197.344V64.7188L197.062 64.4375H196.781ZM215.25 64.4375L214.688 64.5312V64.7188C214.75 65.0938 215.281 65.2812 216.281 65.2812L216.75 64.9062V64.5312L216.188 64.4375H215.25ZM194.062 64.7188L193.875 65V65.2812L194.25 65.4688L194.438 65.0938L194.344 64.7188H194.062ZM198.656 65.75V65.8438L199.125 65.9375H199.688L200.062 65.75V65.4688H199.406H199.312C198.875 65.4688 198.656 65.5625 198.656 65.75ZM215.625 67.25L210.281 67.0625V67.1562C210.281 67.5312 211.344 67.75 213.469 67.8125H215.906L216.562 67.625V67.3438L215.625 67.25ZM198 67.3438L197.719 67.8125L197.906 68.0938H199.312C200.312 68.0938 200.812 68 200.812 67.8125V67.625C200.125 67.4375 199.25 67.3438 198.188 67.3438H198ZM212.625 69.6875L213 69.7812H214.875C215.438 69.7812 215.75 69.6875 215.812 69.5V69.2188L215.25 69.125H213.844C213.031 69.1875 212.625 69.375 212.625 69.6875ZM192.938 69.2188L192.656 69.6875L192.938 69.7812H193.406L193.688 69.6875L193.312 69.2188H192.938ZM215.344 71.4688H214.781V71.8438L215.344 72.0312H215.625L216.188 71.8438V71.4688H215.625H215.344ZM235.125 27.7812L237.75 27.5938C238.562 31.5312 238.531 33.5625 237.656 33.6875C236.844 33.6875 237.969 37.2812 241.031 44.4688C242.406 47.9062 243.5 50.4062 244.312 51.9688C246.125 56.4062 247.312 58.625 247.875 58.625C248.062 58.625 248.375 59 248.812 59.75L248.906 59.9375H249.938C250.625 59.9375 251.781 57.2188 253.406 51.7812C259.469 40.4062 261.188 34.6875 258.562 34.625C258.438 34.625 258.281 34.6562 258.094 34.7188C258.469 32.2188 258.562 30.0938 258.375 28.3438L258.844 27.9688C266.969 28.1562 271.031 28.4688 271.031 28.9062C271.344 28.9062 271.5 30.5 271.5 33.6875C271.062 35.5625 270.5 36.5 269.812 36.5C269.125 36.4375 268.75 36.4375 268.688 36.5C268.625 36.5625 268.781 36.6562 269.156 36.7812H268.5C266.062 40.9062 264.844 43.5938 264.844 44.8438C264.094 47.9062 263.125 50.0312 261.938 51.2188C260 56.8438 258.5 60.7188 257.438 62.8438C257 63.3438 256.562 64.9688 256.125 67.7188L252.094 74.2812C250.156 78.6562 247.5 82.8438 244.125 86.8438L239.531 89.9375C237.656 90.4375 236.188 90.6875 235.125 90.6875C230.5 90.6875 228.188 90.2188 228.188 89.2812C227.688 88.9688 227.281 88.0938 226.969 86.6562C226.031 85.7188 224.875 82.4375 223.5 76.8125V76.625C223.5 76 224.125 75.6875 225.375 75.6875C226.438 75.6875 228.312 75.125 231 74C231.812 74 232.938 76.875 234.375 82.625C234.812 83.9375 235.156 84.5938 235.406 84.5938H236.156C236.656 84.4062 237.156 83.6562 237.656 82.3438C238.031 82.3438 239.281 80.7188 241.406 77.4688C242.344 75.4688 243.344 73.625 244.406 71.9375L244.688 70.8125V68.9375C244.625 68 243.969 66.5938 242.719 64.7188C241.469 62.5938 240.469 60.5938 239.719 58.7188C236.781 50.8438 233.438 43.5312 229.688 36.7812C229.438 36.5312 229.156 36.4062 228.844 36.4062L223.125 36.6875L222.844 36.4062L222.656 33.3125L222.469 29.2812L224.156 28.5312L233.438 27.5938L235.125 27.7812ZM261.562 30.3125L260.438 30.0312L262.594 30.9688L263.906 30.6875H264.094L265.688 30.875V30.6875C265.688 30.4375 265.062 30.25 263.812 30.125H262.406C261.844 30.125 261.562 30.1875 261.562 30.3125ZM268.125 30.0312L267.938 30.2188V30.3125C268.062 30.5625 268.25 30.7188 268.5 30.7812L270.188 30.5938V30.3125C270.125 30.125 269.906 30.0312 269.531 30.0312H268.125ZM223.781 33.6875L223.594 33.7812V34.5312L224.062 34.9062H225.281C226.594 34.8438 227.25 34.6562 227.25 34.3438C227.25 34.0938 226.094 33.875 223.781 33.6875ZM232.406 34.7188L232.125 34.9062C232.125 35.6562 232.562 36.625 233.438 37.8125H233.531V36.7812C233.531 35.7188 233.25 35.0312 232.688 34.7188H232.406ZM266.812 33.3125V33.5L267.188 33.875C269.375 33.375 270.469 32.9688 270.469 32.6562L270.188 32.375H269.812C268 32.5625 267 32.875 266.812 33.3125ZM265.5 32.8438L265.219 33.0312V33.5C265.406 33.875 265.781 34.0625 266.344 34.0625L266.438 33.9688V33.5L265.781 32.8438H265.5ZM265.125 36.0312H264.656V36.5H265.125V36.0312ZM264.75 38.75H264.469C262.031 43.5 260.688 45.9688 260.438 46.1562V46.8125C260.438 47.0625 260.719 47.5 261.281 48.125L260.625 50H260.812C261.688 48.6875 262.938 45.4375 264.562 40.25L264.75 38.75ZM251.062 65.1875V65.6562H251.531C252.531 65.6562 253.812 62.6562 255.375 56.6562C255.375 56.5312 255.688 56.1875 256.312 55.625C256.312 55.125 256.5 54.7812 256.875 54.5938V54.5L256.594 53.75C256.906 53.125 256.906 53.0938 256.594 53.6562C256.469 53.9062 256.219 54.375 255.844 55.0625C254.906 56.75 254.062 58.2812 253.312 59.6562C253.062 60.5312 252.312 62.375 251.062 65.1875ZM240.938 51.0312H240.844V51.2188C242.156 54.8438 242.938 56.6562 243.188 56.6562H243.281V56.4688C242.094 52.8438 241.312 51.0312 240.938 51.0312ZM257.344 59.375H257.438C258.438 59.375 259.25 57 259.875 52.25H259.781C259.531 52.25 259.219 53.0312 258.844 54.5938C257.969 56.7188 257.469 58.3125 257.344 59.375ZM240.469 54.7812L240.188 55.0625V55.3438L240.469 55.5312L240.844 55.3438V55.25L240.469 54.7812ZM243.281 57.125L243 57.4062V57.5938L243.562 58.0625C243.75 58.0625 243.844 57.9688 243.844 57.7812C243.719 57.5312 243.562 57.3125 243.375 57.125H243.281ZM250.125 71.75V71.9375H250.594C251.031 71.9375 251.906 70.375 253.219 67.25V67.1562C252.344 67.1562 251.312 68.6875 250.125 71.75ZM246.562 68.8438V68.9375H246.656C247.156 68.9375 247.406 68.7188 247.406 68.2812V67.7188H247.031C246.719 67.8438 246.562 68.2188 246.562 68.8438ZM249.281 75.125L248.531 76.25L248.625 76.5312C249.188 76.0938 249.469 75.625 249.469 75.125H249.281ZM227.906 77L227.625 77.2812C228.125 77.9688 228.406 78.5938 228.469 79.1562L229.219 79.9062L229.594 79.8125V79.3438C229.594 78.4062 229.188 77.625 228.375 77H227.906ZM240.188 83V83.0938C240.812 83.0938 241.438 82.3125 242.062 80.75H241.875C241.125 81.125 240.562 81.875 240.188 83ZM229.781 81.5938H229.594V81.875C229.594 82.5625 229.844 83.0625 230.344 83.375L230.625 83.1875V83C230.625 82.5 230.344 82.0312 229.781 81.5938ZM242.438 84.9688L241.594 86.0938L241.781 86.2812H241.875C243.562 85.4062 244.562 84.5312 244.875 83.6562C244.625 83.4062 244.375 83.2812 244.125 83.2812H243.75C243.188 83.2812 242.75 83.8438 242.438 84.9688ZM232.312 85.1562H231.75V85.4375L232.125 85.9062H232.969L233.25 85.7188C233.25 85.4062 232.938 85.2188 232.312 85.1562ZM236.812 86.9375L238.5 88.1562H238.875C239.125 88.0938 239.25 87.8438 239.25 87.4062V86.9375C239.188 86.75 238.938 86.6562 238.5 86.6562H237.656C237.094 86.6562 236.812 86.75 236.812 86.9375ZM233.531 87.7812L233.438 88.0625C233.625 88.5 234.031 88.7188 234.656 88.7188H235.969L236.156 88.4375V88.3438C236.156 88.0312 235.781 87.8438 235.031 87.7812H233.531Z" fill="url(#paint0_linear_805_2)"/>
<defs>
<linearGradient id="paint0_linear_805_2" x1="136" y1="-18" x2="136" y2="75" gradientUnits="userSpaceOnUse">
<stop offset="0.541667" stop-color="#276988"/>
<stop offset="1" stop-color="#AE00FF"/>
</linearGradient>
</defs>
</svg>
